<?xml version="1.0" standalone="no"?>
<!DOCTYPE svg PUBLIC "-//W3C//DTD SVG 20010904//EN"
 "http://www.w3.org/TR/2001/REC-SVG-20010904/DTD/svg10.dtd">
<svg version="1.0" xmlns="http://www.w3.org/2000/svg"
 width="260.000000pt" height="208.000000pt" viewBox="0 0 260.000000 208.000000"
 preserveAspectRatio="xMidYMid meet">

<g transform="translate(0.000000,208.000000) scale(0.100000,-0.100000)"
fill="#000000" stroke="none">
<path fill="#1F4DA3" d="M1790 1830 l0 -80 -45 0 -45 0 0 -120 0 -120 25 0 25 0 2 -162 3
-163 108 -3 107 -3 0 -439 0 -440 -175 0 -175 0 0 225 c0 124 3 225 6 225 4 0
31 -21 61 -46 l55 -47 79 79 c43 43 79 82 79 85 0 4 -198 195 -441 424 l-441
418 -51 -49 c-29 -27 -87 -83 -129 -124 l-78 -75 0 83 0 82 -120 0 -120 0 0
-194 0 -194 -194 -183 -194 -183 81 -88 81 -88 58 57 58 57 0 -352 0 -352 900
0 900 0 0 560 0 560 100 0 100 0 0 165 0 165 25 0 25 0 0 120 0 120 -45 0 -45
0 0 80 0 80 -120 0 -120 0 0 -80 0 -80 -50 0 -50 0 0 80 0 80 -120 0 -120 0 0
-80z m380 -375 l0 -35 -90 0 -90 0 0 35 0 35 90 0 90 0 0 -35z m-961 -300
l181 -169 0 -343 0 -343 -370 0 -370 0 0 344 0 343 182 172 c99 94 184 170
188 169 4 -2 89 -79 189 -173z"/>
<path fill="#1F4DA3" d="M948 1076 c-64 -17 -113 -52 -149 -105 -78 -117 -59 -251 49 -348 44
-40 46 -43 25 -49 -19 -5 -23 -13 -23 -45 0 -35 3 -39 25 -39 20 0 25 -5 25
-25 0 -18 5 -25 19 -25 14 0 21 -8 23 -28 3 -27 4 -27 73 -27 69 0 70 0 73 28
2 19 9 27 23 27 14 0 19 7 19 25 0 20 5 25 25 25 22 0 25 4 25 39 0 32 -4 40
-22 45 -22 5 -20 8 22 45 66 56 95 119 95 206 0 59 -5 79 -29 123 -59 107
-183 160 -298 128z m149 -93 c43 -20 88 -80 97 -128 14 -73 -36 -167 -104
-195 -26 -11 -30 -18 -30 -51 l0 -39 -45 0 -45 0 0 39 c0 31 -4 41 -20 46 -31
10 -79 54 -97 88 -9 18 -16 55 -16 85 0 63 36 123 93 153 43 24 120 25 167 2z"/>
<path fill="#1F4DA3" d="M907 842 l-27 -28 68 -67 68 -67 67 68 67 68 -28 27 -28 27 -34 -35
c-19 -19 -38 -35 -44 -35 -6 0 -26 16 -46 35 l-36 35 -27 -28z"/>
</g>
</svg>
