<?xml version="1.0" standalone="no"?>
<!DOCTYPE svg PUBLIC "-//W3C//DTD SVG 20010904//EN"
 "http://www.w3.org/TR/2001/REC-SVG-20010904/DTD/svg10.dtd">
<svg version="1.0" xmlns="http://www.w3.org/2000/svg"
 width="260.000000pt" height="222.000000pt" viewBox="0 0 260.000000 222.000000"
 preserveAspectRatio="xMidYMid meet">

<g transform="translate(0.000000,222.000000) scale(0.100000,-0.100000)"
fill="#000000" stroke="none">
<path fill="#1F4DA3" d="M1263 2140 c-4 -14 -14 -20 -34 -20 -54 0 -50 -62 5 -68 24 -3 38
-22 16 -22 -6 0 -10 -30 -10 -69 0 -39 5 -73 10 -76 6 -3 10 -22 10 -41 0 -20
7 -40 18 -49 9 -7 27 -22 40 -32 33 -27 39 -81 12 -116 -27 -35 -68 -36 -108
-2 -35 30 -42 31 -43 8 -1 -10 -57 -71 -125 -135 l-124 -118 -73 0 -73 0 -57
-58 -57 -58 0 -117 0 -117 -145 0 -145 0 0 -460 0 -460 560 0 560 0 0 159 0
159 55 4 54 3 11 -49 c34 -158 169 -268 330 -269 372 -3 480 494 141 651 -46
22 -71 26 -136 26 -93 0 -165 -27 -233 -89 -43 -39 -102 -143 -102 -180 0 -27
-15 -41 -54 -48 -62 -11 -131 25 -162 85 -16 31 -18 86 -4 108 9 13 13 11 29
-10 l19 -24 46 32 c25 18 50 31 55 28 4 -3 16 1 27 8 16 12 16 16 4 31 -13 15
-10 21 30 55 30 26 41 42 37 53 -9 24 -24 21 -67 -13 -43 -34 -55 -37 -64 -14
-4 11 7 28 36 53 65 59 26 88 -41 31 -32 -28 -36 -29 -53 -13 -14 13 -20 13
-33 3 -8 -7 -12 -17 -9 -22 4 -6 -13 -27 -37 -48 l-43 -37 18 -27 c16 -26 16
-30 2 -67 -23 -56 -20 -107 9 -158 14 -23 25 -45 25 -47 0 -2 -29 -4 -65 -4
l-65 0 0 140 0 140 -135 0 -135 0 0 130 0 130 173 0 c245 1 720 10 735 15 8 3
12 35 12 112 l0 108 -56 63 -56 62 -75 0 -75 0 -118 112 c-108 101 -118 113
-109 135 25 66 -3 137 -65 167 -27 12 -36 23 -36 41 0 13 5 27 10 30 6 3 10
35 10 71 0 48 -4 66 -15 70 -25 10 -17 23 18 26 28 3 32 7 35 36 3 30 1 32
-28 32 -23 0 -33 5 -37 20 -3 11 -14 20 -25 20 -11 0 -22 -9 -25 -20z m-23
-565 c31 -18 80 -19 115 -3 25 11 30 8 118 -80 l92 -92 -280 0 -279 0 99 95
c55 51 102 94 105 94 3 0 16 -6 30 -14z m-266 -217 c-59 -72 -68 -78 -106 -78
-21 0 -38 3 -38 7 0 4 19 27 42 50 36 36 48 43 82 43 l39 0 -19 -22z m736 -28
l42 -50 -38 0 c-31 0 -46 8 -81 42 -24 23 -43 46 -43 50 0 4 18 8 39 8 35 0
44 -6 81 -50z m-800 -180 l0 -80 -45 0 -45 0 0 80 0 80 45 0 45 0 0 -80z m850
0 l0 -80 -45 0 -45 0 0 80 0 80 45 0 45 0 0 -80z m-870 -285 l0 -85 -205 0
-205 0 0 85 0 85 205 0 205 0 0 -85z m1108 -237 l3 -108 -46 0 -45 0 0 111 0
110 43 -3 42 -3 3 -107z m-157 -47 c-92 -99 -21 -261 114 -261 135 0 206 162
114 261 -25 26 -29 39 -27 72 l3 40 44 -34 c25 -19 55 -54 68 -79 21 -38 24
-56 21 -116 -4 -84 -33 -137 -99 -181 -51 -34 -154 -44 -209 -21 -165 70 -192
288 -49 397 l44 34 3 -40 c2 -33 -2 -46 -27 -72z m-1191 9 l0 -90 -85 0 -85 0
0 90 0 90 85 0 85 0 0 -90z m510 0 l0 -90 -202 2 -203 3 -3 74 c-2 41 -1 80 2
88 4 10 47 13 206 13 l200 0 0 -90z m-270 -275 l0 -85 -205 0 -205 0 0 85 0
85 205 0 205 0 0 -85z m510 0 l0 -85 -205 0 -205 0 0 85 0 85 205 0 205 0 0
-85z"/>
</g>
</svg>
