<?xml version="1.0" standalone="no"?>
<!DOCTYPE svg PUBLIC "-//W3C//DTD SVG 20010904//EN"
 "http://www.w3.org/TR/2001/REC-SVG-20010904/DTD/svg10.dtd">
<svg version="1.0" xmlns="http://www.w3.org/2000/svg"
 width="492.000000pt" height="379.000000pt" viewBox="0 0 492.000000 379.000000"
 preserveAspectRatio="xMidYMid meet">

<g transform="translate(0.000000,379.000000) scale(0.100000,-0.100000)"
fill="#000000" stroke="none">
<path fill="#ff3562" d="M868 3298 c-3 -60 -4 -63 -30 -66 l-28 -3 0 -84 0 -84 28 -3 c22 -2
28 -8 30 -35 3 -31 1 -33 -27 -33 -28 0 -31 -3 -31 -30 0 -27 3 -30 30 -30 30
0 30 -1 30 -55 0 -54 0 -55 -30 -55 -28 0 -30 -3 -30 -35 0 -32 2 -35 30 -35
29 0 30 -1 30 -50 0 -49 -1 -50 -30 -50 -28 0 -30 -3 -30 -36 0 -28 4 -35 18
-33 38 3 42 -1 42 -51 0 -49 -1 -50 -30 -50 -28 0 -30 -3 -30 -35 0 -32 2 -35
30 -35 29 0 30 -2 30 -45 0 -43 -1 -45 -30 -45 l-30 0 0 -90 0 -90 30 0 c27 0
30 -3 30 -30 0 -27 -3 -30 -30 -30 -27 0 -30 -3 -30 -30 0 -27 3 -30 31 -30
l30 0 -3 -52 c-3 -49 -5 -53 -30 -56 -24 -3 -28 -8 -28 -33 0 -26 3 -29 30
-29 30 0 30 -1 30 -55 0 -54 0 -55 -30 -55 -23 0 -30 -4 -30 -20 0 -24 4 -24
38 -5 15 8 39 19 55 25 25 9 27 14 27 60 l0 51 48 -3 47 -3 2 -38 c0 -21 3
-39 5 -40 1 -1 42 -1 91 1 l87 3 0 40 0 40 48 -3 c45 -3 47 -4 50 -36 3 -28 7
-33 25 -30 17 2 23 11 25 36 3 28 7 32 32 32 16 0 32 5 35 10 3 6 50 10 106
10 l99 0 0 -36 c0 -28 3 -35 18 -32 11 2 18 14 20 36 l3 32 105 0 104 0 0 -25
c0 -18 5 -25 20 -25 18 0 20 8 22 108 l3 107 78 3 c68 3 77 5 77 22 0 17 -9
19 -77 22 l-78 3 0 70 0 70 73 3 c64 3 72 5 72 22 0 19 -8 20 -200 20 l-200 0
0 70 0 70 195 0 c107 0 195 3 195 6 0 3 -6 12 -14 20 -12 11 -52 14 -195 14
l-181 0 0 90 c0 83 -2 90 -20 90 -17 0 -19 -8 -22 -87 l-3 -88 -94 -3 c-77 -2
-96 0 -103 13 -5 8 -22 15 -39 15 -30 0 -30 0 -27 52 3 51 4 52 33 53 27 0 30
3 30 30 0 27 -4 30 -32 33 -32 3 -33 4 -33 52 0 48 1 49 33 52 28 3 32 6 32
33 0 27 -4 30 -33 33 l-33 3 3 52 c3 51 4 52 36 55 29 3 33 6 30 30 -2 22 -9
28 -36 30 -31 3 -33 6 -30 35 3 28 7 32 36 35 l33 3 -3 87 -3 86 -30 1 c-30 0
-30 0 -33 63 -3 58 -4 62 -27 62 -24 0 -25 -3 -25 -60 0 -54 -2 -60 -22 -65
-13 -3 -97 -4 -188 -3 l-165 3 -3 63 c-3 61 -3 62 -32 62 -29 0 -29 -1 -32
-62z m437 -273 l0 -30 -187 -3 -188 -2 0 28 c0 16 3 32 7 36 4 3 88 5 187 4
l181 -3 0 -30z m3 -152 l3 -53 -50 0 -51 0 0 35 0 35 -89 0 -90 0 -3 -32 c-3
-32 -5 -33 -50 -36 l-48 -3 0 56 0 55 188 -2 187 -3 3 -52z m-284 -170 l-1
-48 -47 -3 -46 -3 0 50 0 51 48 0 47 0 -1 -47z m286 -3 l0 -50 -50 0 -50 0 0
50 0 50 50 0 50 0 0 -50z m-295 -119 c6 0 9 -22 9 -48 l-1 -48 -47 -3 -46 -3
0 49 c0 58 4 63 44 58 17 -2 36 -4 41 -5z m273 3 c19 -6 22 -13 22 -55 l0 -49
-50 0 -50 0 0 48 c0 27 3 52 7 55 8 9 41 9 71 1z m-263 -219 l0 -40 -47 -3
-48 -3 0 46 0 46 48 -3 47 -3 0 -40z m285 0 l0 -45 -50 0 -50 0 0 45 0 45 50
0 50 0 0 -45z m318 -22 l-3 -68 -97 -3 -98 -3 0 26 c0 22 -4 25 -35 25 -35 0
-35 0 -35 45 l0 45 135 0 136 0 -3 -67z m-3 -188 l0 -70 -130 0 -130 0 -3 27
c-3 24 1 27 30 30 31 3 33 5 36 46 l3 43 97 -3 97 -3 0 -70z m253 -2 l3 -73
-106 0 -105 0 0 68 c0 38 3 72 7 76 4 4 50 5 103 4 l95 -3 3 -72z m-854 -35
c-1 -10 -2 -22 -3 -28 0 -5 -21 -10 -46 -10 -44 0 -45 1 -45 31 0 30 1 30 48
27 38 -2 47 -6 46 -20z m284 -5 c-3 -26 -7 -28 -50 -31 -47 -3 -48 -3 -48 27
0 30 1 31 51 31 49 0 50 -1 47 -27z m317 -138 l0 -60 -130 0 -130 0 -3 53 -3
52 35 0 c20 0 36 5 36 10 0 7 35 10 98 8 l97 -3 0 -60z m253 3 l-3 -63 -100 0
-100 0 -3 63 -3 62 106 0 106 0 -3 -62z m-853 -13 l0 -50 -45 0 -45 0 -3 53
-3 53 48 -3 48 -3 0 -50z m283 3 l-3 -53 -45 0 -45 0 -3 53 -3 52 51 0 51 0
-3 -52z"/>
<path d="M2990 3059 c-36 -5 -137 -18 -225 -29 -88 -11 -266 -33 -395 -50
-129 -16 -237 -30 -241 -30 -3 0 -4 -43 -1 -95 4 -83 3 -95 -12 -95 -14 0 -16
-16 -16 -131 0 -107 3 -134 15 -143 13 -10 16 -60 18 -361 l2 -350 -105 -7
c-58 -4 -321 -21 -585 -38 -488 -32 -536 -38 -586 -79 -21 -17 -15 -18 176
-24 109 -4 299 -7 422 -7 123 0 222 -4 219 -8 -3 -5 -204 -12 -446 -15 l-441
-6 -19 -23 c-10 -13 -16 -26 -13 -30 2 -5 68 -8 147 -8 78 0 273 -3 432 -7
376 -10 268 -20 -236 -22 l-376 -1 -17 -29 c-9 -15 -14 -31 -10 -35 3 -3 79
-6 168 -6 228 0 676 -12 670 -18 -3 -3 -197 -8 -432 -11 l-428 -6 -12 -25 c-6
-14 -15 -37 -18 -52 l-7 -27 159 5 c87 2 316 9 508 14 193 5 527 15 743 21
215 7 395 9 400 5 4 -4 -2 -15 -14 -25 -21 -17 -175 -23 -1609 -58 l-220 -5
-114 -45 c-63 -24 -126 -51 -140 -58 -22 -12 111 -14 952 -15 778 0 978 -3
975 -12 -4 -10 -213 -14 -991 -16 l-987 -2 0 -105 0 -105 985 0 c869 0 985 -2
985 -15 0 -13 -115 -15 -977 -15 -601 0 -973 -4 -967 -9 5 -5 36 -25 70 -44
l60 -34 315 -7 c173 -3 519 -11 769 -16 817 -17 883 -20 900 -37 14 -14 -14
-15 -280 -9 -162 3 -520 10 -795 16 -275 5 -556 12 -624 15 l-123 6 6 -28 c4
-15 12 -32 17 -38 9 -9 128 -12 1029 -25 282 -4 120 -17 -255 -20 -170 -2
-413 -5 -538 -9 -212 -6 -227 -7 -215 -23 12 -15 53 -17 418 -23 223 -3 461
-9 530 -13 121 -7 117 -7 -130 -13 -140 -3 -375 -7 -522 -8 -225 -1 -268 -3
-268 -15 0 -42 7 -43 512 -52 520 -9 562 -21 77 -23 -163 -1 -350 -4 -417 -8
l-121 -6 16 -27 15 -27 262 -6 c143 -4 331 -8 416 -8 268 -3 48 -17 -309 -21
-197 -2 -312 -7 -312 -13 -1 -5 25 -24 58 -41 48 -25 76 -32 149 -38 216 -16
1353 -59 1584 -60 235 -1 258 1 295 19 109 53 210 221 260 431 l29 122 45 6
c24 3 58 6 75 6 l31 0 0 193 c1 168 4 203 24 282 13 50 27 98 32 108 9 16 1
17 -114 17 l-124 0 -16 58 c-9 31 -19 65 -22 75 -7 16 6 17 188 17 l195 0 31
39 31 39 0 604 0 604 -32 32 c-22 21 -106 63 -251 127 -120 52 -224 94 -230
94 -7 -1 -41 -5 -77 -10z m40 -380 c0 -209 -4 -339 -9 -337 -6 2 -137 113
-292 248 -155 135 -308 267 -340 295 -33 27 -56 52 -51 56 4 4 133 21 287 38
154 18 289 33 300 35 11 2 39 4 63 5 l42 1 0 -341z m-753 228 c21 -18 128
-114 238 -213 110 -98 271 -242 358 -319 l157 -140 0 -53 c0 -30 -4 -52 -9
-50 -4 2 -197 165 -429 363 -411 352 -421 361 -421 397 -1 33 2 37 27 41 15 2
30 5 34 6 5 0 25 -14 45 -32z m957 -63 c13 -5 16 -23 16 -95 0 -95 -19 -128
-21 -36 -2 83 -10 100 -52 110 -20 5 -37 13 -37 18 0 10 70 12 94 3z m-616
-383 l412 -353 0 -201 0 -201 -37 36 c-21 21 -60 47 -87 59 l-49 21 -329 -22
c-180 -13 -332 -20 -336 -16 -7 8 -20 514 -21 865 -1 184 0 193 17 179 9 -8
203 -173 430 -367z m892 -266 l0 -545 -35 0 -35 0 0 545 0 545 35 0 35 0 0
-545z m-296 259 c14 -5 16 -47 16 -368 0 -268 -3 -365 -12 -374 -7 -7 -29 -12
-49 -12 -71 0 -69 -10 -69 384 0 260 3 355 12 364 13 13 75 16 102 6z m-362
-714 c54 -15 54 -27 0 -26 -46 1 -112 -19 -112 -34 0 -4 12 -12 27 -19 71 -33
165 -143 206 -243 l16 -38 -27 0 c-22 0 -32 9 -52 47 -52 99 -198 212 -239
186 -16 -10 -84 -130 -96 -170 -5 -20 -3 -23 20 -23 14 0 38 -6 53 -14 29 -15
68 -53 61 -60 -8 -9 -220 -42 -224 -36 -8 13 38 156 72 225 59 116 113 173
192 201 45 16 56 17 103 4z m375 -426 c-3 -3 -12 -4 -19 -1 -8 3 -5 6 6 6 11
1 17 -2 13 -5z m-57 -10 c-8 -2 -116 -13 -240 -24 -228 -21 -364 -44 -432 -74
-47 -20 -49 -10 -5 25 58 47 271 75 572 76 66 0 113 -1 105 -3z m-560 -290 c0
-31 -21 -64 -40 -64 -15 0 -40 43 -40 67 0 13 9 32 21 44 20 20 22 20 40 3 11
-10 19 -30 19 -50z m407 -296 c-3 -7 -5 -2 -5 12 0 14 2 19 5 13 2 -7 2 -19 0
-25z m-267 -7 c0 -25 -49 -99 -82 -122 -18 -13 -46 -23 -65 -23 -18 0 -33 -4
-33 -8 0 -21 60 -138 93 -180 48 -62 32 -62 -26 1 -63 67 -120 190 -151 322
l-5 25 134 0 c109 -1 135 -4 135 -15z"/>
<path d="M3610 1829 c0 -210 -1 -222 -21 -251 -21 -28 -21 -30 -3 -25 143 44
418 33 475 -19 19 -17 19 -17 5 22 -29 82 -86 180 -128 220 -64 60 -315 274
-322 274 -3 0 -6 -99 -6 -221z"/>
<path d="M3635 1543 c-59 -12 -106 -37 -130 -69 -91 -120 -141 -388 -117 -632
14 -148 37 -236 82 -326 35 -70 82 -116 120 -116 16 0 13 14 -21 115 -59 176
-73 259 -73 420 1 77 6 154 11 170 8 23 10 -1 6 -95 -6 -145 10 -255 58 -407
56 -175 68 -203 91 -203 12 0 18 5 15 13 -31 81 -80 256 -93 329 -18 103 -15
343 4 388 14 32 14 25 2 -88 -13 -123 2 -251 46 -405 50 -171 76 -231 101
-235 19 -3 18 3 -17 110 -60 182 -75 263 -74 428 0 116 3 152 17 180 10 19 15
26 11 15 -13 -46 -16 -236 -5 -316 13 -82 59 -250 101 -363 l21 -56 60 0 60 0
-34 29 c-47 41 -82 112 -114 227 -26 94 -28 110 -28 309 0 201 1 215 28 310
16 55 40 122 55 148 29 54 84 107 110 107 12 -1 9 -5 -9 -15 -112 -61 -191
-401 -160 -688 21 -194 86 -365 155 -408 126 -80 247 137 263 473 5 102 8 117
24 121 17 5 19 16 19 115 l0 111 -31 3 c-30 3 -33 8 -55 74 -27 85 -70 160
-105 186 -39 30 -141 47 -264 46 -60 0 -119 -2 -130 -5z m430 -316 c97 -97 97
-457 0 -554 -18 -18 -38 -33 -43 -33 -30 0 -73 55 -92 117 -24 78 -25 93 -4
93 20 0 44 59 44 107 0 52 -18 113 -36 120 -17 6 -18 25 -3 78 11 39 67 105
89 105 7 0 27 -15 45 -33z"/>
<path d="M4071 1104 c0 -11 3 -14 6 -6 3 7 2 16 -1 19 -3 4 -6 -2 -5 -13z"/>
<path d="M4081 990 c-2 -145 -33 -237 -89 -266 -23 -12 -19 -24 8 -24 25 0 60
42 74 91 19 63 28 186 17 244 -8 46 -9 43 -10 -45z"/>
</g>
</svg>
