<?xml version="1.0" standalone="no"?>
<!DOCTYPE svg PUBLIC "-//W3C//DTD SVG 20010904//EN"
 "http://www.w3.org/TR/2001/REC-SVG-20010904/DTD/svg10.dtd">
<svg version="1.0" xmlns="http://www.w3.org/2000/svg"
 width="260.000000pt" height="222.000000pt" viewBox="0 0 260.000000 222.000000"
 preserveAspectRatio="xMidYMid meet">

<g transform="translate(0.000000,222.000000) scale(0.100000,-0.100000)"
fill="#000000" stroke="none">
<path fill="#ffffff" d="M1888 2041 c-8 -11 -28 -21 -48 -23 -34 -3 -35 -4 -38 -51 l-3 -48
133 3 133 3 0 45 0 45 -41 3 c-32 2 -43 8 -47 23 -7 27 -70 27 -89 0z"/>
<path fill="#ffffff" d="M700 2011 c-104 -34 -170 -116 -170 -210 0 -41 20 -71 46 -71 9 0 14
-10 14 -27 0 -60 65 -125 138 -139 78 -15 170 45 191 124 8 26 19 43 32 47 58
19 36 148 -38 216 -57 54 -152 80 -213 60z m32 -103 c2 -33 8 -44 22 -46 24
-5 36 14 36 56 0 51 28 42 32 -10 2 -35 7 -44 24 -46 14 -2 24 5 31 20 l10 23
15 -30 c8 -17 18 -42 22 -57 l6 -28 -170 0 c-166 0 -170 0 -170 21 0 12 8 37
17 57 16 34 17 34 27 13 15 -33 50 -24 54 14 4 44 10 55 26 55 10 0 16 -13 18
-42z"/>
<path fill="#ffffff" d="M1654 2006 c-12 -9 -14 -67 -12 -366 l3 -355 288 -3 287 -2 0 85 c0
55 -4 84 -10 80 -5 -3 -10 -37 -10 -76 l0 -69 -265 0 -265 0 0 345 0 345 40 0
40 0 0 -44 c0 -73 8 -76 184 -76 111 0 156 3 164 13 6 6 12 32 14 57 l4 45 42
3 42 3 0 -132 c0 -91 3 -130 10 -123 7 7 10 61 8 140 l-3 129 -62 3 -62 3 -3
-53 -3 -53 -152 -3 -152 -3 -3 58 -3 58 -53 1 c-30 0 -60 -5 -68 -10z"/>
<path fill="#ffffff" d="M1985 1700 c-44 -44 -84 -80 -89 -80 -6 0 -29 19 -53 42 -36 35 -44
39 -58 28 -23 -19 -17 -28 51 -92 l60 -57 103 103 c95 96 101 104 86 119 -9
10 -17 17 -18 17 -2 0 -38 -36 -82 -80z"/>
<path fill="#ffffff" d="M2255 1740 c-18 -20 -18 -22 30 -70 l49 -50 23 22 c31 29 29 38 -15
81 -43 42 -61 46 -87 17z"/>
<path fill="#ffffff" d="M2089 1573 c-113 -116 -127 -134 -143 -186 -10 -32 -15 -61 -12 -65
4 -3 37 4 74 16 63 20 75 30 187 142 l120 120 -50 50 -50 50 -126 -127z m121
80 c0 -15 -185 -193 -200 -193 -8 0 30 45 85 100 93 93 115 111 115 93z m-196
-254 c33 -26 33 -35 -1 -43 -33 -9 -55 11 -47 42 8 27 14 28 48 1z"/>
<path fill="#ffffff" d="M1341 1518 c-90 -148 -95 -164 -52 -179 17 -6 31 -13 31 -16 0 -15
-24 -99 -30 -106 -8 -9 -111 9 -142 25 -9 4 -54 62 -98 127 -90 132 -103 145
-142 155 l-28 6 0 -285 0 -285 40 0 40 0 0 -330 0 -330 -85 0 -85 0 0 230 0
230 -35 0 -35 0 0 -230 0 -230 -85 0 -85 0 0 330 0 330 43 0 42 0 -2 282 -3
283 -27 -3 c-16 -2 -36 -11 -45 -20 -19 -20 -257 -534 -265 -574 -7 -33 34
-78 70 -78 40 0 62 28 117 150 71 157 69 155 70 82 0 -57 -2 -63 -24 -71 -13
-5 -26 -17 -30 -26 -3 -9 -6 -174 -6 -366 l0 -350 30 -17 c16 -9 30 -23 30
-30 0 -7 11 -24 25 -37 35 -36 96 -35 124 1 12 15 21 32 21 39 0 7 7 16 16 19
23 9 54 -3 54 -20 0 -29 47 -64 85 -64 37 0 85 35 85 62 0 7 14 21 30 30 l30
17 -2 363 -3 363 -27 13 c-28 13 -28 13 -28 118 0 58 4 103 8 100 4 -2 24 -27
42 -55 39 -56 45 -59 189 -91 93 -21 95 -21 120 -2 22 16 27 30 32 90 4 38 12
86 19 107 10 31 16 36 38 34 51 -6 55 4 48 115 -11 166 -18 216 -30 216 -6 0
-44 -55 -85 -122z"/>
<path fill="#ffffff" d="M700 1405 l0 -125 55 0 55 0 0 125 0 125 -55 0 -55 0 0 -125z"/>
<path fill="#ffffff" d="M1424 1077 c-3 -8 -4 -49 -2 -93 l3 -79 209 -3 c161 -2 211 1 218 10
9 15 11 139 2 162 -5 14 -34 16 -215 16 -166 0 -211 -3 -215 -13z"/>
<path fill="#ffffff" d="M1904 1077 c-3 -8 -4 -49 -2 -93 l3 -79 95 0 95 0 0 90 0 90 -93 3
c-71 2 -94 0 -98 -11z"/>
<path fill="#ffffff" d="M1182 838 c-15 -15 -16 -141 -2 -169 10 -18 23 -19 208 -19 108 0
203 4 210 8 9 6 12 33 10 98 l-3 89 -205 3 c-152 2 -209 -1 -218 -10z"/>
<path fill="#ffffff" d="M1677 844 c-4 -4 -7 -47 -7 -95 0 -70 3 -88 16 -93 24 -9 387 -7 402
2 9 6 12 33 10 98 l-3 89 -206 3 c-113 1 -208 -1 -212 -4z"/>
<path fill="#ffffff" d="M1424 587 c-3 -8 -4 -49 -2 -93 l3 -79 212 -3 213 -2 5 23 c3 12 5
54 3 92 l-3 70 -213 3 c-172 2 -213 0 -218 -11z"/>
<path fill="#ffffff" d="M1907 594 c-10 -10 -9 -156 1 -172 6 -9 33 -12 98 -10 l89 3 0 90 0
90 -90 3 c-50 1 -94 0 -98 -4z"/>
<path fill="#ffffff" d="M1182 348 c-7 -7 -12 -41 -12 -84 0 -109 -7 -106 223 -98 106 3 198
7 205 10 9 3 12 26 10 91 l-3 88 -205 3 c-152 2 -209 -1 -218 -10z"/>
<path fill="#ffffff" d="M1677 354 c-4 -4 -7 -47 -7 -96 l0 -88 215 0 216 0 -3 93 -3 92 -206
3 c-113 1 -208 -1 -212 -4z"/>
</g>
</svg>
