<?xml version="1.0" standalone="no"?>
<!DOCTYPE svg PUBLIC "-//W3C//DTD SVG 20010904//EN"
 "http://www.w3.org/TR/2001/REC-SVG-20010904/DTD/svg10.dtd">
<svg version="1.0" xmlns="http://www.w3.org/2000/svg"
 width="260.000000pt" height="218.000000pt" viewBox="0 0 260.000000 218.000000"
 preserveAspectRatio="xMidYMid meet">

<g transform="translate(0.000000,218.000000) scale(0.100000,-0.100000)"
fill="#000000" stroke="none">
<path fill="#ffffff" d="M450 1880 l0 -180 126 0 126 0 -2 -42 c-1 -24 -1 -49 -1 -55 1 -10
31 -13 116 -13 l115 0 0 175 0 175 -120 0 -120 0 0 60 0 60 -120 0 -120 0 0
-180z"/>
<path fill="#ffffff" d="M1119 1555 c-96 -80 -177 -145 -181 -145 -5 0 -8 14 -8 30 l0 30
-115 0 -115 0 0 -128 c0 -88 -4 -133 -12 -144 -7 -8 -95 -84 -195 -168 l-183
-152 76 -89 c45 -52 81 -86 88 -82 6 4 32 24 57 45 25 21 48 38 52 38 4 0 7
-153 7 -340 l0 -340 710 0 710 0 0 340 c0 187 3 340 6 340 3 0 30 -20 59 -45
l52 -45 59 67 c32 38 66 78 77 89 l18 22 -486 408 c-268 225 -491 410 -495
412 -4 2 -86 -63 -181 -143z m417 -361 l234 -196 0 -324 0 -324 -475 0 -475 0
0 323 0 322 236 198 c129 108 238 197 241 197 3 0 111 -88 239 -196z"/>
<path fill="#ffffff" d="M1211 1183 l-82 -98 61 -3 60 -3 0 -64 0 -65 45 0 45 0 0 65 0 64 64
3 64 3 -79 95 c-44 52 -83 96 -88 98 -5 2 -45 -41 -90 -95z"/>
<path fill="#ffffff" d="M1190 850 l0 -30 105 0 105 0 0 30 0 30 -105 0 -105 0 0 -30z"/>
<path fill="#ffffff" d="M1250 685 l0 -64 -61 -3 -62 -3 83 -98 c46 -54 87 -96 91 -95 4 2 44
46 88 98 l80 95 -64 3 -65 3 0 64 0 65 -45 0 -45 0 0 -65z"/>
</g>
</svg>
