<?xml version="1.0" standalone="no"?>
<!DOCTYPE svg PUBLIC "-//W3C//DTD SVG 20010904//EN"
 "http://www.w3.org/TR/2001/REC-SVG-20010904/DTD/svg10.dtd">
<svg version="1.0" xmlns="http://www.w3.org/2000/svg"
 width="260.000000pt" height="214.000000pt" viewBox="0 0 260.000000 214.000000"
 preserveAspectRatio="xMidYMid meet">

<g transform="translate(0.000000,214.000000) scale(0.100000,-0.100000)"
fill="#000000" stroke="none">
<path fill="#ffffff" d="M1430 1845 l-125 -125 145 -145 145 -145 47 47 48 47 27 -27 27 -27
-47 -48 -47 -47 145 -145 145 -145 130 130 130 130 -145 145 -145 144 -48 -47
-48 -47 -27 27 -27 27 47 48 47 48 -139 140 c-77 77 -144 140 -150 140 -6 0
-66 -56 -135 -125z m280 -170 c-12 -14 -16 -13 -42 12 l-28 27 -35 -34 -35
-34 27 -28 c25 -27 26 -29 10 -45 -16 -16 -22 -13 -97 62 l-80 80 67 67 68 68
79 -79 c69 -69 78 -82 66 -96z m282 -252 l78 -77 -62 -63 c-34 -35 -67 -63
-73 -63 -6 0 -44 34 -85 75 -70 71 -73 76 -57 92 16 16 18 15 45 -10 l28 -27
34 35 34 35 -27 28 c-21 22 -24 31 -15 40 7 7 14 12 17 12 3 0 41 -35 83 -77z"/>
<path fill="#ffffff" d="M948 1709 c-16 -9 -18 -29 -18 -187 0 -125 4 -182 12 -190 7 -7 42
-12 88 -12 46 0 81 5 88 12 8 8 12 63 12 180 0 204 -2 208 -102 208 -35 0 -71
-5 -80 -11z"/>
<path fill="#ffffff" d="M817 1540 c-47 -44 -72 -77 -96 -130 -27 -58 -37 -70 -57 -70 -22 0
-24 -3 -24 -55 l0 -55 390 0 390 0 0 55 c0 52 -1 55 -25 55 -21 0 -29 10 -54
65 -31 67 -98 148 -150 178 l-31 18 0 -134 c0 -179 -2 -182 -130 -182 -128 0
-130 3 -130 181 0 79 -4 134 -10 134 -5 0 -38 -27 -73 -60z"/>
<path fill="#ffffff" d="M697 1162 c-40 -44 -25 -130 28 -154 15 -7 25 -22 30 -46 19 -102
105 -200 200 -227 85 -25 166 -5 243 60 34 29 92 136 92 171 0 16 11 28 38 41
52 25 70 80 45 132 l-18 36 -321 3 c-300 2 -322 1 -337 -16z"/>
<path fill="#ffffff" d="M1600 928 c-7 -40 -16 -78 -21 -84 -5 -6 -26 -17 -48 -24 -38 -12
-40 -12 -98 29 -32 22 -64 41 -69 41 -6 0 -20 -10 -32 -23 l-21 -22 46 -67
c44 -64 45 -68 33 -100 -21 -51 -25 -55 -105 -67 l-75 -12 0 -39 0 -38 79 -12
79 -12 17 -45 17 -45 -41 -60 c-22 -33 -41 -63 -41 -67 0 -4 11 -18 24 -30
l25 -23 63 44 63 44 45 -17 c42 -15 45 -20 52 -60 19 -117 15 -109 58 -109
l39 0 12 75 12 75 44 20 43 19 66 -46 66 -46 26 26 26 26 -46 67 -46 66 18 41
c19 41 20 42 97 57 l78 15 3 37 3 36 -68 11 c-99 17 -99 17 -113 66 -12 43
-12 44 31 105 l43 61 -27 26 -26 27 -58 -40 c-75 -50 -66 -48 -117 -29 l-44
17 -12 79 -12 79 -38 0 -38 0 -12 -72z m128 -282 c33 -31 37 -40 37 -84 0 -39
-5 -56 -23 -75 -56 -59 -130 -60 -181 -1 -70 79 -16 192 92 194 29 0 46 -8 75
-34z"/>
<path fill="#ffffff" d="M799 694 c-33 -34 -33 -34 -128 -34 -81 0 -102 -4 -136 -23 -48 -27
-89 -91 -110 -172 -19 -70 -31 -255 -21 -310 l8 -38 566 7 c311 3 567 8 570
10 2 2 0 24 -3 49 -10 65 -32 67 -119 12 l-71 -45 -58 59 -59 58 50 79 c28 43
49 81 46 85 -2 4 -21 10 -41 13 -21 4 -62 11 -90 17 l-53 10 0 89 0 88 28 6
c15 3 44 8 65 12 l38 6 -27 29 c-33 34 -38 35 -74 9 -15 -11 -56 -27 -91 -36
-74 -19 -145 -9 -215 30 l-42 24 -33 -34z"/>
</g>
</svg>
