<?xml version="1.0" standalone="no"?>
<!DOCTYPE svg PUBLIC "-//W3C//DTD SVG 20010904//EN"
 "http://www.w3.org/TR/2001/REC-SVG-20010904/DTD/svg10.dtd">
<svg version="1.0" xmlns="http://www.w3.org/2000/svg"
 width="260.000000pt" height="212.000000pt" viewBox="0 0 260.000000 212.000000"
 preserveAspectRatio="xMidYMid meet">

<g transform="translate(0.000000,212.000000) scale(0.100000,-0.100000)"
fill="#000000" stroke="none">
<path fill="#ffffff" d="M450 1820 l0 -180 126 0 126 0 -2 -42 c-1 -24 -1 -49 -1 -55 1 -10
31 -13 116 -13 l115 0 0 175 0 175 -120 0 -120 0 0 60 0 60 -120 0 -120 0 0
-180z"/>
<path fill="#ffffff" d="M1119 1495 c-96 -80 -177 -145 -181 -145 -5 0 -8 14 -8 30 l0 30
-115 0 -115 0 0 -128 c0 -88 -4 -133 -12 -144 -7 -8 -95 -84 -195 -168 l-183
-152 76 -89 c45 -52 81 -86 88 -82 6 4 32 24 57 45 25 21 48 38 52 38 4 0 7
-153 7 -340 l0 -340 710 0 710 0 0 340 c0 187 3 340 6 340 3 0 30 -20 59 -45
l52 -45 59 67 c32 38 66 78 77 89 l18 22 -486 408 c-268 225 -491 410 -495
412 -4 2 -86 -63 -181 -143z m417 -361 l234 -196 0 -324 0 -324 -475 0 -475 0
0 323 0 322 236 198 c129 108 238 197 241 197 3 0 111 -88 239 -196z"/>
<path fill="#ffffff" d="M1229 1073 c-42 -64 -71 -78 -155 -77 l-74 1 0 -199 c0 -232 2 -241
87 -318 59 -54 186 -130 217 -130 47 0 220 118 266 182 l30 41 0 214 0 213
-54 -6 c-72 -9 -137 21 -169 77 -21 37 -24 39 -73 39 -47 0 -52 -2 -75 -37z
m177 -147 c18 -8 51 -18 74 -22 l41 -7 -3 -148 -3 -149 -40 -39 c-44 -44 -150
-111 -175 -111 -28 0 -168 99 -189 134 -19 30 -21 49 -21 175 0 130 1 141 18
141 40 0 113 34 154 70 l43 38 35 -33 c19 -18 49 -40 66 -49z"/>
<path fill="#ffffff" d="M1328 773 l-47 -47 -31 29 -30 29 -30 -30 -30 -29 63 -63 63 -62 79
80 79 80 -29 30 c-16 16 -31 30 -35 30 -3 0 -26 -21 -52 -47z"/>
</g>
</svg>
